<mxfile host="Electron" modified="2023-11-11T03:12:13.435Z" agent="Mozilla/5.0 (Windows NT 10.0; Win64; x64) AppleWebKit/537.36 (KHTML, like Gecko) draw.io/22.0.2 Chrome/114.0.5735.289 Electron/25.8.4 Safari/537.36" etag="i7WvzO7WyKSvO7wISPy6" version="22.0.2" type="device">
  <diagram id="5A3foilHxnzcEwqRGsPn" name="Page-1">
    <mxGraphModel dx="1687" dy="984" grid="1" gridSize="10" guides="1" tooltips="1" connect="1" arrows="1" fold="1" page="1" pageScale="1" pageWidth="850" pageHeight="1100" math="0" shadow="0">
      <root>
        <mxCell id="0" />
        <mxCell id="1" parent="0" />
        <mxCell id="y6iQs869xfZ_kIx4TwNn-19" style="edgeStyle=orthogonalEdgeStyle;rounded=0;orthogonalLoop=1;jettySize=auto;html=1;exitX=1;exitY=0.25;exitDx=0;exitDy=0;entryX=0;entryY=0.25;entryDx=0;entryDy=0;" edge="1" parent="1" source="y6iQs869xfZ_kIx4TwNn-1" target="y6iQs869xfZ_kIx4TwNn-5">
          <mxGeometry relative="1" as="geometry" />
        </mxCell>
        <mxCell id="y6iQs869xfZ_kIx4TwNn-20" style="edgeStyle=orthogonalEdgeStyle;rounded=0;orthogonalLoop=1;jettySize=auto;html=1;exitX=1;exitY=0.25;exitDx=0;exitDy=0;entryX=0;entryY=0.25;entryDx=0;entryDy=0;" edge="1" parent="1" source="y6iQs869xfZ_kIx4TwNn-1" target="y6iQs869xfZ_kIx4TwNn-11">
          <mxGeometry relative="1" as="geometry" />
        </mxCell>
        <mxCell id="y6iQs869xfZ_kIx4TwNn-21" style="edgeStyle=orthogonalEdgeStyle;rounded=0;orthogonalLoop=1;jettySize=auto;html=1;exitX=1;exitY=0.25;exitDx=0;exitDy=0;entryX=0;entryY=0.25;entryDx=0;entryDy=0;" edge="1" parent="1" source="y6iQs869xfZ_kIx4TwNn-1" target="y6iQs869xfZ_kIx4TwNn-15">
          <mxGeometry relative="1" as="geometry" />
        </mxCell>
        <mxCell id="y6iQs869xfZ_kIx4TwNn-1" value="Wr&amp;nbsp; &amp;nbsp; &amp;nbsp; &amp;nbsp; &amp;nbsp; &amp;nbsp; &amp;nbsp; &amp;nbsp; &amp;nbsp; &amp;nbsp; &amp;nbsp; &amp;nbsp; &amp;nbsp;Rd&lt;br&gt;&lt;br&gt;&lt;br&gt;Hypervector Memory" style="rounded=0;whiteSpace=wrap;html=1;fillColor=#f5f5f5;fontColor=#333333;strokeColor=#666666;" vertex="1" parent="1">
          <mxGeometry x="120" y="473" width="120" height="90" as="geometry" />
        </mxCell>
        <mxCell id="y6iQs869xfZ_kIx4TwNn-28" style="edgeStyle=orthogonalEdgeStyle;rounded=0;orthogonalLoop=1;jettySize=auto;html=1;exitX=1;exitY=0.25;exitDx=0;exitDy=0;entryX=0;entryY=0.5;entryDx=0;entryDy=0;" edge="1" parent="1" source="y6iQs869xfZ_kIx4TwNn-2" target="y6iQs869xfZ_kIx4TwNn-15">
          <mxGeometry relative="1" as="geometry" />
        </mxCell>
        <mxCell id="y6iQs869xfZ_kIx4TwNn-2" value="Wr&amp;nbsp; &amp;nbsp; &amp;nbsp; &amp;nbsp; &amp;nbsp; &amp;nbsp; &amp;nbsp; &amp;nbsp; &amp;nbsp; &amp;nbsp; &amp;nbsp; &amp;nbsp; &amp;nbsp;Rd&lt;br&gt;&lt;br&gt;&lt;br&gt;Similarity Cache" style="rounded=0;whiteSpace=wrap;html=1;fillColor=#f5f5f5;fontColor=#333333;strokeColor=#666666;" vertex="1" parent="1">
          <mxGeometry x="120" y="873" width="120" height="90" as="geometry" />
        </mxCell>
        <mxCell id="y6iQs869xfZ_kIx4TwNn-29" style="edgeStyle=orthogonalEdgeStyle;rounded=0;orthogonalLoop=1;jettySize=auto;html=1;exitX=0.875;exitY=0.5;exitDx=0;exitDy=0;exitPerimeter=0;entryX=0;entryY=0.75;entryDx=0;entryDy=0;strokeColor=#B3B3B3;" edge="1" parent="1" source="y6iQs869xfZ_kIx4TwNn-3" target="y6iQs869xfZ_kIx4TwNn-5">
          <mxGeometry relative="1" as="geometry">
            <Array as="points">
              <mxPoint x="250" y="695" />
              <mxPoint x="250" y="543" />
            </Array>
          </mxGeometry>
        </mxCell>
        <mxCell id="y6iQs869xfZ_kIx4TwNn-30" style="edgeStyle=orthogonalEdgeStyle;rounded=0;orthogonalLoop=1;jettySize=auto;html=1;exitX=0.875;exitY=0.5;exitDx=0;exitDy=0;exitPerimeter=0;entryX=0;entryY=0.75;entryDx=0;entryDy=0;strokeColor=#B3B3B3;" edge="1" parent="1" source="y6iQs869xfZ_kIx4TwNn-3" target="y6iQs869xfZ_kIx4TwNn-11">
          <mxGeometry relative="1" as="geometry">
            <Array as="points">
              <mxPoint x="250" y="695" />
              <mxPoint x="250" y="743" />
            </Array>
          </mxGeometry>
        </mxCell>
        <mxCell id="y6iQs869xfZ_kIx4TwNn-31" style="edgeStyle=orthogonalEdgeStyle;rounded=0;orthogonalLoop=1;jettySize=auto;html=1;exitX=0.875;exitY=0.5;exitDx=0;exitDy=0;exitPerimeter=0;entryX=0;entryY=0.75;entryDx=0;entryDy=0;strokeColor=#B3B3B3;" edge="1" parent="1" source="y6iQs869xfZ_kIx4TwNn-3" target="y6iQs869xfZ_kIx4TwNn-15">
          <mxGeometry relative="1" as="geometry">
            <Array as="points">
              <mxPoint x="250" y="695" />
              <mxPoint x="250" y="943" />
            </Array>
          </mxGeometry>
        </mxCell>
        <mxCell id="y6iQs869xfZ_kIx4TwNn-3" value="Kernel &lt;br&gt;Control Logic" style="ellipse;shape=cloud;whiteSpace=wrap;html=1;fillColor=#f5f5f5;fontColor=#333333;strokeColor=#666666;" vertex="1" parent="1">
          <mxGeometry x="110" y="655" width="120" height="80" as="geometry" />
        </mxCell>
        <mxCell id="y6iQs869xfZ_kIx4TwNn-22" style="edgeStyle=orthogonalEdgeStyle;rounded=0;orthogonalLoop=1;jettySize=auto;html=1;exitX=1;exitY=0.25;exitDx=0;exitDy=0;entryX=0;entryY=0.25;entryDx=0;entryDy=0;" edge="1" parent="1" source="y6iQs869xfZ_kIx4TwNn-5" target="y6iQs869xfZ_kIx4TwNn-1">
          <mxGeometry relative="1" as="geometry">
            <Array as="points">
              <mxPoint x="540" y="448" />
              <mxPoint x="540" y="380" />
              <mxPoint x="100" y="380" />
              <mxPoint x="100" y="496" />
            </Array>
          </mxGeometry>
        </mxCell>
        <mxCell id="y6iQs869xfZ_kIx4TwNn-5" value="Bundling Kernels&lt;br&gt;&lt;br&gt;&lt;br&gt;&lt;br&gt;&lt;br&gt;&lt;br&gt;&lt;br&gt;&lt;br&gt;&lt;br&gt;&lt;br&gt;&lt;br&gt;&lt;br&gt;" style="rounded=1;whiteSpace=wrap;html=1;fillColor=#f5f5f5;strokeColor=#666666;fontColor=#333333;" vertex="1" parent="1">
          <mxGeometry x="310" y="400" width="210" height="190" as="geometry" />
        </mxCell>
        <mxCell id="y6iQs869xfZ_kIx4TwNn-6" value="Kernel #1" style="rounded=1;whiteSpace=wrap;html=1;fillColor=#fff2cc;strokeColor=#d6b656;" vertex="1" parent="1">
          <mxGeometry x="320" y="430" width="120" height="60" as="geometry" />
        </mxCell>
        <mxCell id="y6iQs869xfZ_kIx4TwNn-9" value="Kernel #n" style="rounded=1;whiteSpace=wrap;html=1;fillColor=#fff2cc;strokeColor=#d6b656;" vertex="1" parent="1">
          <mxGeometry x="320" y="520" width="120" height="60" as="geometry" />
        </mxCell>
        <mxCell id="y6iQs869xfZ_kIx4TwNn-10" value="&lt;b&gt;&lt;font style=&quot;font-size: 14px;&quot;&gt;:&lt;/font&gt;&lt;/b&gt;" style="text;html=1;strokeColor=none;fillColor=none;align=center;verticalAlign=middle;whiteSpace=wrap;rounded=0;" vertex="1" parent="1">
          <mxGeometry x="350" y="490" width="60" height="30" as="geometry" />
        </mxCell>
        <mxCell id="y6iQs869xfZ_kIx4TwNn-23" style="edgeStyle=orthogonalEdgeStyle;rounded=0;orthogonalLoop=1;jettySize=auto;html=1;exitX=1;exitY=0.25;exitDx=0;exitDy=0;entryX=0;entryY=0.25;entryDx=0;entryDy=0;" edge="1" parent="1" source="y6iQs869xfZ_kIx4TwNn-11" target="y6iQs869xfZ_kIx4TwNn-1">
          <mxGeometry relative="1" as="geometry">
            <Array as="points">
              <mxPoint x="540" y="648" />
              <mxPoint x="540" y="380" />
              <mxPoint x="100" y="380" />
              <mxPoint x="100" y="496" />
            </Array>
          </mxGeometry>
        </mxCell>
        <mxCell id="y6iQs869xfZ_kIx4TwNn-11" value="Binding Kernels&lt;br&gt;&lt;br&gt;&lt;br&gt;&lt;br&gt;&lt;br&gt;&lt;br&gt;&lt;br&gt;&lt;br&gt;&lt;br&gt;&lt;br&gt;&lt;br&gt;&lt;br&gt;" style="rounded=1;whiteSpace=wrap;html=1;fillColor=#f5f5f5;strokeColor=#666666;fontColor=#333333;" vertex="1" parent="1">
          <mxGeometry x="310" y="600" width="210" height="190" as="geometry" />
        </mxCell>
        <mxCell id="y6iQs869xfZ_kIx4TwNn-12" value="Kernel #1" style="rounded=1;whiteSpace=wrap;html=1;fillColor=#fff2cc;strokeColor=#d6b656;" vertex="1" parent="1">
          <mxGeometry x="320" y="630" width="120" height="60" as="geometry" />
        </mxCell>
        <mxCell id="y6iQs869xfZ_kIx4TwNn-13" value="Kernel #n" style="rounded=1;whiteSpace=wrap;html=1;fillColor=#fff2cc;strokeColor=#d6b656;" vertex="1" parent="1">
          <mxGeometry x="320" y="720" width="120" height="60" as="geometry" />
        </mxCell>
        <mxCell id="y6iQs869xfZ_kIx4TwNn-14" value="&lt;b&gt;&lt;font style=&quot;font-size: 14px;&quot;&gt;:&lt;/font&gt;&lt;/b&gt;" style="text;html=1;strokeColor=none;fillColor=none;align=center;verticalAlign=middle;whiteSpace=wrap;rounded=0;" vertex="1" parent="1">
          <mxGeometry x="350" y="690" width="60" height="30" as="geometry" />
        </mxCell>
        <mxCell id="y6iQs869xfZ_kIx4TwNn-24" style="edgeStyle=orthogonalEdgeStyle;rounded=0;orthogonalLoop=1;jettySize=auto;html=1;exitX=1;exitY=0.25;exitDx=0;exitDy=0;entryX=0;entryY=0.25;entryDx=0;entryDy=0;" edge="1" parent="1" source="y6iQs869xfZ_kIx4TwNn-15" target="y6iQs869xfZ_kIx4TwNn-1">
          <mxGeometry relative="1" as="geometry">
            <Array as="points">
              <mxPoint x="540" y="848" />
              <mxPoint x="540" y="380" />
              <mxPoint x="100" y="380" />
              <mxPoint x="100" y="496" />
            </Array>
          </mxGeometry>
        </mxCell>
        <mxCell id="y6iQs869xfZ_kIx4TwNn-27" style="edgeStyle=orthogonalEdgeStyle;rounded=0;orthogonalLoop=1;jettySize=auto;html=1;exitX=1;exitY=0.5;exitDx=0;exitDy=0;entryX=0;entryY=0.25;entryDx=0;entryDy=0;" edge="1" parent="1" source="y6iQs869xfZ_kIx4TwNn-15" target="y6iQs869xfZ_kIx4TwNn-2">
          <mxGeometry relative="1" as="geometry">
            <Array as="points">
              <mxPoint x="540" y="895" />
              <mxPoint x="540" y="1010" />
              <mxPoint x="100" y="1010" />
              <mxPoint x="100" y="896" />
            </Array>
          </mxGeometry>
        </mxCell>
        <mxCell id="y6iQs869xfZ_kIx4TwNn-15" value="Similarity Kernels&lt;br&gt;&lt;br&gt;&lt;br&gt;&lt;br&gt;&lt;br&gt;&lt;br&gt;&lt;br&gt;&lt;br&gt;&lt;br&gt;&lt;br&gt;&lt;br&gt;&lt;br&gt;" style="rounded=1;whiteSpace=wrap;html=1;fillColor=#f5f5f5;strokeColor=#666666;fontColor=#333333;" vertex="1" parent="1">
          <mxGeometry x="310" y="800" width="210" height="190" as="geometry" />
        </mxCell>
        <mxCell id="y6iQs869xfZ_kIx4TwNn-16" value="Kernel #1" style="rounded=1;whiteSpace=wrap;html=1;fillColor=#fff2cc;strokeColor=#d6b656;" vertex="1" parent="1">
          <mxGeometry x="320" y="830" width="120" height="60" as="geometry" />
        </mxCell>
        <mxCell id="y6iQs869xfZ_kIx4TwNn-17" value="Kernel #n" style="rounded=1;whiteSpace=wrap;html=1;fillColor=#fff2cc;strokeColor=#d6b656;" vertex="1" parent="1">
          <mxGeometry x="320" y="920" width="120" height="60" as="geometry" />
        </mxCell>
        <mxCell id="y6iQs869xfZ_kIx4TwNn-18" value="&lt;b&gt;&lt;font style=&quot;font-size: 14px;&quot;&gt;:&lt;/font&gt;&lt;/b&gt;" style="text;html=1;strokeColor=none;fillColor=none;align=center;verticalAlign=middle;whiteSpace=wrap;rounded=0;" vertex="1" parent="1">
          <mxGeometry x="350" y="890" width="60" height="30" as="geometry" />
        </mxCell>
      </root>
    </mxGraphModel>
  </diagram>
</mxfile>
